<svg version="1.0" xmlns="http://www.w3.org/2000/svg"
 width="400.000000pt" height="400.000000pt" viewBox="0 0 400.000000 400.000000"
 preserveAspectRatio="xMidYMid meet">

<g transform="translate(0.000000,400.000000) scale(0.100000,-0.100000)"
 >
<path d="M1924 3961 c-22 -10 -51 -31 -63 -47 -13 -16 -124 -209 -248 -429
-202 -360 -224 -403 -219 -435 5 -36 45 -80 72 -80 8 0 14 -2 14 -4 0 -2 -18
-47 -40 -100 -53 -126 -70 -202 -70 -306 0 -149 43 -273 136 -393 43 -56 44
-59 44 -132 0 -102 -26 -169 -89 -228 -64 -60 -111 -80 -192 -80 -257 -3 -379
319 -185 490 47 42 118 73 165 73 37 0 53 14 49 41 -3 22 -7 24 -59 23 -111
-2 -233 -85 -286 -193 -25 -49 -28 -67 -28 -151 0 -82 4 -103 27 -152 95 -204
352 -264 538 -126 15 11 33 16 43 12 15 -6 17 -33 16 -303 0 -200 -4 -306 -12
-328 -25 -66 -73 -119 -137 -152 -278 -139 -542 202 -337 435 47 53 124 94
179 94 34 0 68 20 68 39 0 23 -33 33 -83 28 -113 -11 -216 -86 -269 -195 -29
-59 -33 -76 -33 -152 0 -71 4 -94 27 -142 35 -75 94 -138 165 -174 52 -26 68
-29 153 -29 76 0 104 4 142 22 66 30 143 105 175 172 27 54 28 64 33 246 5
181 7 193 33 250 35 76 63 105 98 105 63 0 60 35 57 -703 -3 -750 2 -692 -75
-778 -73 -80 -187 -109 -294 -74 -73 25 -149 101 -174 174 -34 102 -7 217 67
291 39 40 122 80 164 80 39 0 67 21 62 46 -2 15 -13 20 -49 22 -105 7 -241
-83 -296 -196 -23 -49 -27 -70 -28 -147 0 -77 4 -98 26 -146 37 -79 90 -133
167 -171 60 -30 75 -33 157 -33 80 0 97 3 148 29 68 35 140 108 170 174 22 47
22 53 27 772 4 547 8 730 17 746 24 42 106 56 144 25 l24 -19 5 -669 c5 -660
5 -669 27 -715 30 -66 102 -139 170 -173 51 -26 69 -29 148 -30 82 0 96 3 157
33 77 38 128 91 167 172 21 46 26 69 26 140 0 77 -3 92 -33 152 -40 81 -111
149 -188 177 -66 25 -149 28 -158 6 -11 -28 5 -44 52 -51 74 -10 138 -42 185
-93 174 -186 27 -489 -227 -469 -105 9 -187 66 -232 163 l-24 50 0 593 c0 361
4 600 10 611 13 25 64 45 95 37 36 -9 73 -52 108 -126 29 -61 31 -73 38 -225
3 -89 12 -175 19 -195 35 -93 117 -176 209 -211 80 -30 204 -24 279 15 70 35
128 95 161 165 22 48 26 69 26 151 0 76 -5 104 -21 141 -26 55 -85 123 -135
155 -47 29 -140 56 -181 52 -27 -2 -34 -8 -36 -30 -3 -29 -3 -29 83 -43 125
-21 224 -140 225 -271 0 -117 -56 -211 -156 -260 -137 -67 -302 -11 -377 129
-21 40 -22 54 -25 314 -3 269 -3 272 18 283 18 10 28 7 58 -14 69 -47 112 -60
202 -60 77 -1 92 2 152 32 74 36 132 95 169 170 20 40 24 63 24 147 0 95 -2
103 -34 163 -55 101 -139 161 -255 183 -64 12 -89 1 -84 -34 2 -16 16 -23 67
-33 79 -16 145 -55 188 -112 39 -52 53 -98 53 -177 0 -198 -222 -336 -397
-246 -110 55 -154 130 -161 267 l-4 91 45 59 c94 121 137 245 137 394 0 104
-17 180 -70 306 -22 53 -40 98 -40 100 0 2 6 4 14 4 27 0 67 44 72 80 5 31
-18 77 -225 444 -126 224 -238 417 -248 429 -48 53 -147 71 -219 38z"/>
</g>
</svg>
